<svg width="184" height="194" xmlns="http://www.w3.org/2000/svg">
 <title>Drawing</title>

 <g>
  <title>Layer 1</title>
  <path stroke-width="8" id="svg_1" d="m1.99999,24.9534l0,0c0,-11.57224 9.16131,-20.9534 20.46235,-20.9534l9.30107,0l0,0l44.64515,0l83.70962,0c5.42697,0 10.63164,2.20758 14.46909,6.13711c3.83742,3.92953 5.99328,9.25911 5.99328,14.81629l0,52.38349l0,0l0,31.43009l0,0c0,11.57225 -9.1613,20.9534 -20.46236,20.9534l-83.70962,0l-58.32337,53.27962l13.67823,-53.27962l-9.30107,0c-11.30105,0 -20.46235,-9.38115 -20.46235,-20.9534l0,0l0,-31.43009l0,0l-0.00001,-52.38349z" stroke="#ffa149" fill="#fff"/>
  <line id="svg_6" y2="49.10902" x2="149.53537" y1="49.10902" x1="32.46701" stroke-width="8" stroke="#ffa149" fill="none"/>
  <line id="svg_10" y2="76.10902" x2="119.47311" y1="76.10902" x1="37.46701" stroke-width="8" stroke="#ffa149" fill="none"/>
 </g>
</svg>